<svg width="18" height="18" viewBox="0 0 18 18" fill="none" xmlns="http://www.w3.org/2000/svg">
<path d="M6.3 3.9375C4.21436 3.9375 2.4375 5.49698 2.4375 7.52235C2.4375 8.91956 3.09176 10.0959 3.95887 11.0703C4.823 12.0414 5.93786 12.8565 6.94573 13.5387L8.68469 14.7158C8.87513 14.8447 9.12487 14.8447 9.31531 14.7158L11.0543 13.5387C12.0621 12.8565 13.177 12.0414 14.0411 11.0703C14.9082 10.0959 15.5625 8.91956 15.5625 7.52235C15.5625 5.49698 13.7856 3.9375 11.7 3.9375C10.6249 3.9375 9.67887 4.4416 9 5.09387C8.32113 4.4416 7.3751 3.9375 6.3 3.9375Z" fill="#D83636"/>
</svg>
